<?xml version="1.0" encoding="UTF-8"?><svg id="_圖層_1" xmlns="http://www.w3.org/2000/svg" xmlns:xlink="http://www.w3.org/1999/xlink" viewBox="0 0 180 180"><defs><linearGradient id="_未命名漸層_10" x1="90" y1="180" x2="90" y2="0" gradientUnits="userSpaceOnUse"><stop offset="0" stop-color="#249f37"/><stop offset="1" stop-color="#0ec791"/></linearGradient></defs><circle cx="90" cy="90" r="90" fill="url(#_未命名漸層_10)"/><path d="M127.35,55.95c-1.24,.07-2.4,.62-3.25,1.53-12.59,13.17-37.75,40.38-51.71,55.11l-16.79-14.81h0c-1.28-1.13-3.07-1.5-4.69-.96-1.62,.54-2.83,1.91-3.17,3.58-.34,1.67,.24,3.4,1.52,4.54l20.3,17.91h0c.93,.82,2.14,1.25,3.38,1.2,1.24-.06,2.41-.59,3.26-1.49,13.35-13.97,41.63-44.71,54.81-58.5h0c.89-.92,1.38-2.17,1.35-3.45-.03-1.28-.58-2.5-1.52-3.38-.94-.87-2.2-1.33-3.48-1.27h0Z" fill="#fff"/></svg>